<mxfile host="app.diagrams.net" modified="2023-09-12T10:22:24.915Z" agent="Mozilla/5.0 (Windows NT 10.0; Win64; x64) AppleWebKit/537.36 (KHTML, like Gecko) Chrome/116.0.0.0 Safari/537.36 Edg/116.0.1938.76" etag="L4u0Sg-101iAaCz6oxNm" version="21.7.2" type="github">
  <diagram id="C5RBs43oDa-KdzZeNtuy" name="Page-1">
    <mxGraphModel dx="3944" dy="1868" grid="1" gridSize="10" guides="1" tooltips="1" connect="1" arrows="1" fold="1" page="1" pageScale="1" pageWidth="827" pageHeight="1169" math="0" shadow="0">
      <root>
        <mxCell id="WIyWlLk6GJQsqaUBKTNV-0" />
        <mxCell id="WIyWlLk6GJQsqaUBKTNV-1" parent="WIyWlLk6GJQsqaUBKTNV-0" />
        <mxCell id="7YlRBh8pq4Ufe2D6Z4gR-2" style="edgeStyle=orthogonalEdgeStyle;rounded=0;orthogonalLoop=1;jettySize=auto;html=1;" parent="WIyWlLk6GJQsqaUBKTNV-1" source="7YlRBh8pq4Ufe2D6Z4gR-0" target="7YlRBh8pq4Ufe2D6Z4gR-1" edge="1">
          <mxGeometry relative="1" as="geometry" />
        </mxCell>
        <mxCell id="7YlRBh8pq4Ufe2D6Z4gR-0" value="开始" style="ellipse;whiteSpace=wrap;html=1;aspect=fixed;" parent="WIyWlLk6GJQsqaUBKTNV-1" vertex="1">
          <mxGeometry x="290" y="20" width="80" height="80" as="geometry" />
        </mxCell>
        <mxCell id="7YlRBh8pq4Ufe2D6Z4gR-4" style="edgeStyle=orthogonalEdgeStyle;rounded=0;orthogonalLoop=1;jettySize=auto;html=1;entryX=0.5;entryY=0;entryDx=0;entryDy=0;" parent="WIyWlLk6GJQsqaUBKTNV-1" source="7YlRBh8pq4Ufe2D6Z4gR-1" target="7YlRBh8pq4Ufe2D6Z4gR-3" edge="1">
          <mxGeometry relative="1" as="geometry" />
        </mxCell>
        <mxCell id="7YlRBh8pq4Ufe2D6Z4gR-1" value="助理审核订单价格" style="rounded=1;whiteSpace=wrap;html=1;" parent="WIyWlLk6GJQsqaUBKTNV-1" vertex="1">
          <mxGeometry x="270" y="150" width="120" height="60" as="geometry" />
        </mxCell>
        <mxCell id="7YlRBh8pq4Ufe2D6Z4gR-6" style="edgeStyle=orthogonalEdgeStyle;rounded=0;orthogonalLoop=1;jettySize=auto;html=1;" parent="WIyWlLk6GJQsqaUBKTNV-1" source="7YlRBh8pq4Ufe2D6Z4gR-3" target="7YlRBh8pq4Ufe2D6Z4gR-5" edge="1">
          <mxGeometry relative="1" as="geometry" />
        </mxCell>
        <mxCell id="7YlRBh8pq4Ufe2D6Z4gR-3" value="部门审批" style="rounded=1;whiteSpace=wrap;html=1;" parent="WIyWlLk6GJQsqaUBKTNV-1" vertex="1">
          <mxGeometry x="270" y="270" width="120" height="60" as="geometry" />
        </mxCell>
        <mxCell id="7YlRBh8pq4Ufe2D6Z4gR-8" style="edgeStyle=orthogonalEdgeStyle;rounded=0;orthogonalLoop=1;jettySize=auto;html=1;" parent="WIyWlLk6GJQsqaUBKTNV-1" source="7YlRBh8pq4Ufe2D6Z4gR-5" target="7YlRBh8pq4Ufe2D6Z4gR-7" edge="1">
          <mxGeometry relative="1" as="geometry" />
        </mxCell>
        <mxCell id="7YlRBh8pq4Ufe2D6Z4gR-5" value="抄送助理" style="rounded=1;whiteSpace=wrap;html=1;" parent="WIyWlLk6GJQsqaUBKTNV-1" vertex="1">
          <mxGeometry x="270" y="390" width="120" height="60" as="geometry" />
        </mxCell>
        <mxCell id="7YlRBh8pq4Ufe2D6Z4gR-107" style="edgeStyle=orthogonalEdgeStyle;rounded=0;orthogonalLoop=1;jettySize=auto;html=1;entryX=1;entryY=0.5;entryDx=0;entryDy=0;" parent="WIyWlLk6GJQsqaUBKTNV-1" source="7YlRBh8pq4Ufe2D6Z4gR-7" target="7YlRBh8pq4Ufe2D6Z4gR-9" edge="1">
          <mxGeometry relative="1" as="geometry" />
        </mxCell>
        <mxCell id="7YlRBh8pq4Ufe2D6Z4gR-109" style="edgeStyle=orthogonalEdgeStyle;rounded=0;orthogonalLoop=1;jettySize=auto;html=1;" parent="WIyWlLk6GJQsqaUBKTNV-1" source="7YlRBh8pq4Ufe2D6Z4gR-7" target="7YlRBh8pq4Ufe2D6Z4gR-11" edge="1">
          <mxGeometry relative="1" as="geometry" />
        </mxCell>
        <mxCell id="7YlRBh8pq4Ufe2D6Z4gR-7" value="销售渠道" style="rhombus;whiteSpace=wrap;html=1;" parent="WIyWlLk6GJQsqaUBKTNV-1" vertex="1">
          <mxGeometry x="290" y="510" width="80" height="80" as="geometry" />
        </mxCell>
        <mxCell id="7YlRBh8pq4Ufe2D6Z4gR-108" style="edgeStyle=orthogonalEdgeStyle;rounded=0;orthogonalLoop=1;jettySize=auto;html=1;" parent="WIyWlLk6GJQsqaUBKTNV-1" source="7YlRBh8pq4Ufe2D6Z4gR-9" target="7YlRBh8pq4Ufe2D6Z4gR-10" edge="1">
          <mxGeometry relative="1" as="geometry" />
        </mxCell>
        <mxCell id="7YlRBh8pq4Ufe2D6Z4gR-9" value="抄送童伟林" style="rounded=1;whiteSpace=wrap;html=1;" parent="WIyWlLk6GJQsqaUBKTNV-1" vertex="1">
          <mxGeometry x="20" y="520" width="120" height="60" as="geometry" />
        </mxCell>
        <mxCell id="7YlRBh8pq4Ufe2D6Z4gR-111" style="edgeStyle=orthogonalEdgeStyle;rounded=0;orthogonalLoop=1;jettySize=auto;html=1;entryX=0.5;entryY=0;entryDx=0;entryDy=0;" parent="WIyWlLk6GJQsqaUBKTNV-1" source="7YlRBh8pq4Ufe2D6Z4gR-10" target="7YlRBh8pq4Ufe2D6Z4gR-14" edge="1">
          <mxGeometry relative="1" as="geometry" />
        </mxCell>
        <mxCell id="7YlRBh8pq4Ufe2D6Z4gR-10" value="财务确认收款" style="rounded=1;whiteSpace=wrap;html=1;" parent="WIyWlLk6GJQsqaUBKTNV-1" vertex="1">
          <mxGeometry x="20" y="680" width="120" height="60" as="geometry" />
        </mxCell>
        <mxCell id="7YlRBh8pq4Ufe2D6Z4gR-110" style="edgeStyle=orthogonalEdgeStyle;rounded=0;orthogonalLoop=1;jettySize=auto;html=1;entryX=0.5;entryY=0;entryDx=0;entryDy=0;" parent="WIyWlLk6GJQsqaUBKTNV-1" source="7YlRBh8pq4Ufe2D6Z4gR-11" target="7YlRBh8pq4Ufe2D6Z4gR-12" edge="1">
          <mxGeometry relative="1" as="geometry" />
        </mxCell>
        <mxCell id="7YlRBh8pq4Ufe2D6Z4gR-11" value="财务确认收款" style="rounded=1;whiteSpace=wrap;html=1;" parent="WIyWlLk6GJQsqaUBKTNV-1" vertex="1">
          <mxGeometry x="270" y="670" width="120" height="60" as="geometry" />
        </mxCell>
        <mxCell id="7YlRBh8pq4Ufe2D6Z4gR-113" style="edgeStyle=orthogonalEdgeStyle;rounded=0;orthogonalLoop=1;jettySize=auto;html=1;entryX=0.5;entryY=0;entryDx=0;entryDy=0;" parent="WIyWlLk6GJQsqaUBKTNV-1" source="7YlRBh8pq4Ufe2D6Z4gR-12" target="7YlRBh8pq4Ufe2D6Z4gR-13" edge="1">
          <mxGeometry relative="1" as="geometry" />
        </mxCell>
        <mxCell id="7YlRBh8pq4Ufe2D6Z4gR-12" value="总裁审批" style="rounded=1;whiteSpace=wrap;html=1;" parent="WIyWlLk6GJQsqaUBKTNV-1" vertex="1">
          <mxGeometry x="270" y="790" width="120" height="60" as="geometry" />
        </mxCell>
        <mxCell id="7YlRBh8pq4Ufe2D6Z4gR-114" style="edgeStyle=orthogonalEdgeStyle;rounded=0;orthogonalLoop=1;jettySize=auto;html=1;entryX=0.5;entryY=0;entryDx=0;entryDy=0;" parent="WIyWlLk6GJQsqaUBKTNV-1" source="7YlRBh8pq4Ufe2D6Z4gR-13" target="7YlRBh8pq4Ufe2D6Z4gR-15" edge="1">
          <mxGeometry relative="1" as="geometry" />
        </mxCell>
        <mxCell id="7YlRBh8pq4Ufe2D6Z4gR-13" value="销售类型" style="rhombus;whiteSpace=wrap;html=1;" parent="WIyWlLk6GJQsqaUBKTNV-1" vertex="1">
          <mxGeometry x="290" y="920" width="80" height="80" as="geometry" />
        </mxCell>
        <mxCell id="7YlRBh8pq4Ufe2D6Z4gR-190" style="edgeStyle=orthogonalEdgeStyle;rounded=0;orthogonalLoop=1;jettySize=auto;html=1;entryX=0.5;entryY=0;entryDx=0;entryDy=0;" parent="WIyWlLk6GJQsqaUBKTNV-1" source="7YlRBh8pq4Ufe2D6Z4gR-14" target="7YlRBh8pq4Ufe2D6Z4gR-17" edge="1">
          <mxGeometry relative="1" as="geometry" />
        </mxCell>
        <mxCell id="7YlRBh8pq4Ufe2D6Z4gR-14" value="T-CODE商品编码确认" style="rounded=1;whiteSpace=wrap;html=1;" parent="WIyWlLk6GJQsqaUBKTNV-1" vertex="1">
          <mxGeometry x="20" y="910" width="120" height="60" as="geometry" />
        </mxCell>
        <mxCell id="7YlRBh8pq4Ufe2D6Z4gR-115" style="edgeStyle=orthogonalEdgeStyle;rounded=0;orthogonalLoop=1;jettySize=auto;html=1;entryX=0.5;entryY=0;entryDx=0;entryDy=0;" parent="WIyWlLk6GJQsqaUBKTNV-1" source="7YlRBh8pq4Ufe2D6Z4gR-15" target="7YlRBh8pq4Ufe2D6Z4gR-19" edge="1">
          <mxGeometry relative="1" as="geometry" />
        </mxCell>
        <mxCell id="7YlRBh8pq4Ufe2D6Z4gR-15" value="物流主管确定是否允许拆分多次发货" style="rounded=1;whiteSpace=wrap;html=1;" parent="WIyWlLk6GJQsqaUBKTNV-1" vertex="1">
          <mxGeometry x="270" y="1040" width="120" height="60" as="geometry" />
        </mxCell>
        <mxCell id="7YlRBh8pq4Ufe2D6Z4gR-117" style="edgeStyle=orthogonalEdgeStyle;rounded=0;orthogonalLoop=1;jettySize=auto;html=1;" parent="WIyWlLk6GJQsqaUBKTNV-1" source="7YlRBh8pq4Ufe2D6Z4gR-17" target="7YlRBh8pq4Ufe2D6Z4gR-18" edge="1">
          <mxGeometry relative="1" as="geometry" />
        </mxCell>
        <mxCell id="7YlRBh8pq4Ufe2D6Z4gR-17" value="软件发货" style="rounded=1;whiteSpace=wrap;html=1;" parent="WIyWlLk6GJQsqaUBKTNV-1" vertex="1">
          <mxGeometry x="20" y="1030" width="120" height="60" as="geometry" />
        </mxCell>
        <mxCell id="7YlRBh8pq4Ufe2D6Z4gR-18" value="（软件）帐务员核销" style="rounded=1;whiteSpace=wrap;html=1;" parent="WIyWlLk6GJQsqaUBKTNV-1" vertex="1">
          <mxGeometry x="20" y="1180" width="120" height="60" as="geometry" />
        </mxCell>
        <mxCell id="7YlRBh8pq4Ufe2D6Z4gR-118" style="edgeStyle=orthogonalEdgeStyle;rounded=0;orthogonalLoop=1;jettySize=auto;html=1;entryX=0.5;entryY=0;entryDx=0;entryDy=0;" parent="WIyWlLk6GJQsqaUBKTNV-1" source="7YlRBh8pq4Ufe2D6Z4gR-19" target="7YlRBh8pq4Ufe2D6Z4gR-20" edge="1">
          <mxGeometry relative="1" as="geometry" />
        </mxCell>
        <mxCell id="7YlRBh8pq4Ufe2D6Z4gR-19" value="（第1次）PMC确认库存" style="rounded=1;whiteSpace=wrap;html=1;" parent="WIyWlLk6GJQsqaUBKTNV-1" vertex="1">
          <mxGeometry x="270" y="1160" width="120" height="60" as="geometry" />
        </mxCell>
        <mxCell id="7YlRBh8pq4Ufe2D6Z4gR-120" style="edgeStyle=orthogonalEdgeStyle;rounded=0;orthogonalLoop=1;jettySize=auto;html=1;" parent="WIyWlLk6GJQsqaUBKTNV-1" source="7YlRBh8pq4Ufe2D6Z4gR-20" target="7YlRBh8pq4Ufe2D6Z4gR-21" edge="1">
          <mxGeometry relative="1" as="geometry" />
        </mxCell>
        <mxCell id="7YlRBh8pq4Ufe2D6Z4gR-20" value="(第1次)PMC负责人审批" style="rounded=1;whiteSpace=wrap;html=1;" parent="WIyWlLk6GJQsqaUBKTNV-1" vertex="1">
          <mxGeometry x="270" y="1270" width="120" height="60" as="geometry" />
        </mxCell>
        <mxCell id="7YlRBh8pq4Ufe2D6Z4gR-121" style="edgeStyle=orthogonalEdgeStyle;rounded=0;orthogonalLoop=1;jettySize=auto;html=1;" parent="WIyWlLk6GJQsqaUBKTNV-1" source="7YlRBh8pq4Ufe2D6Z4gR-21" target="7YlRBh8pq4Ufe2D6Z4gR-22" edge="1">
          <mxGeometry relative="1" as="geometry" />
        </mxCell>
        <mxCell id="7YlRBh8pq4Ufe2D6Z4gR-21" value="(第1次)发货通知单" style="rounded=1;whiteSpace=wrap;html=1;" parent="WIyWlLk6GJQsqaUBKTNV-1" vertex="1">
          <mxGeometry x="270" y="1370" width="120" height="60" as="geometry" />
        </mxCell>
        <mxCell id="TyYmmWe8gpWV6a3Zkya5-2" style="edgeStyle=orthogonalEdgeStyle;rounded=0;orthogonalLoop=1;jettySize=auto;html=1;" edge="1" parent="WIyWlLk6GJQsqaUBKTNV-1" source="7YlRBh8pq4Ufe2D6Z4gR-22" target="7YlRBh8pq4Ufe2D6Z4gR-25">
          <mxGeometry relative="1" as="geometry" />
        </mxCell>
        <mxCell id="TyYmmWe8gpWV6a3Zkya5-3" style="edgeStyle=orthogonalEdgeStyle;rounded=0;orthogonalLoop=1;jettySize=auto;html=1;entryX=0.378;entryY=-0.027;entryDx=0;entryDy=0;entryPerimeter=0;" edge="1" parent="WIyWlLk6GJQsqaUBKTNV-1" source="7YlRBh8pq4Ufe2D6Z4gR-22" target="7YlRBh8pq4Ufe2D6Z4gR-23">
          <mxGeometry relative="1" as="geometry" />
        </mxCell>
        <mxCell id="7YlRBh8pq4Ufe2D6Z4gR-22" value="(第1次)备货" style="rounded=1;whiteSpace=wrap;html=1;" parent="WIyWlLk6GJQsqaUBKTNV-1" vertex="1">
          <mxGeometry x="270" y="1460" width="120" height="60" as="geometry" />
        </mxCell>
        <mxCell id="TyYmmWe8gpWV6a3Zkya5-0" style="edgeStyle=orthogonalEdgeStyle;rounded=0;orthogonalLoop=1;jettySize=auto;html=1;" edge="1" parent="WIyWlLk6GJQsqaUBKTNV-1" source="7YlRBh8pq4Ufe2D6Z4gR-23" target="7YlRBh8pq4Ufe2D6Z4gR-28">
          <mxGeometry relative="1" as="geometry" />
        </mxCell>
        <mxCell id="7YlRBh8pq4Ufe2D6Z4gR-23" value="(第1次)上传SN" style="rounded=1;whiteSpace=wrap;html=1;" parent="WIyWlLk6GJQsqaUBKTNV-1" vertex="1">
          <mxGeometry x="110" y="1540" width="120" height="60" as="geometry" />
        </mxCell>
        <mxCell id="7YlRBh8pq4Ufe2D6Z4gR-126" style="edgeStyle=orthogonalEdgeStyle;rounded=0;orthogonalLoop=1;jettySize=auto;html=1;" parent="WIyWlLk6GJQsqaUBKTNV-1" source="7YlRBh8pq4Ufe2D6Z4gR-25" target="7YlRBh8pq4Ufe2D6Z4gR-26" edge="1">
          <mxGeometry relative="1" as="geometry" />
        </mxCell>
        <mxCell id="7YlRBh8pq4Ufe2D6Z4gR-25" value="(第1次)抄送总裁" style="rounded=1;whiteSpace=wrap;html=1;" parent="WIyWlLk6GJQsqaUBKTNV-1" vertex="1">
          <mxGeometry x="270" y="1770" width="120" height="60" as="geometry" />
        </mxCell>
        <mxCell id="7YlRBh8pq4Ufe2D6Z4gR-127" style="edgeStyle=orthogonalEdgeStyle;rounded=0;orthogonalLoop=1;jettySize=auto;html=1;" parent="WIyWlLk6GJQsqaUBKTNV-1" source="7YlRBh8pq4Ufe2D6Z4gR-26" target="7YlRBh8pq4Ufe2D6Z4gR-29" edge="1">
          <mxGeometry relative="1" as="geometry" />
        </mxCell>
        <mxCell id="7YlRBh8pq4Ufe2D6Z4gR-26" value="(第1次)抄送财务负责人" style="rounded=1;whiteSpace=wrap;html=1;" parent="WIyWlLk6GJQsqaUBKTNV-1" vertex="1">
          <mxGeometry x="270" y="1860" width="120" height="60" as="geometry" />
        </mxCell>
        <mxCell id="TyYmmWe8gpWV6a3Zkya5-4" style="edgeStyle=orthogonalEdgeStyle;rounded=0;orthogonalLoop=1;jettySize=auto;html=1;entryX=0;entryY=0.5;entryDx=0;entryDy=0;exitX=0.5;exitY=1;exitDx=0;exitDy=0;" edge="1" parent="WIyWlLk6GJQsqaUBKTNV-1" target="7YlRBh8pq4Ufe2D6Z4gR-102">
          <mxGeometry relative="1" as="geometry">
            <mxPoint x="160" y="1720" as="sourcePoint" />
            <mxPoint x="219" y="3450" as="targetPoint" />
            <Array as="points">
              <mxPoint x="160" y="3260" />
            </Array>
          </mxGeometry>
        </mxCell>
        <mxCell id="7YlRBh8pq4Ufe2D6Z4gR-28" value="(第1次)研发助理" style="rounded=1;whiteSpace=wrap;html=1;" parent="WIyWlLk6GJQsqaUBKTNV-1" vertex="1">
          <mxGeometry x="110" y="1650" width="120" height="60" as="geometry" />
        </mxCell>
        <mxCell id="7YlRBh8pq4Ufe2D6Z4gR-128" style="edgeStyle=orthogonalEdgeStyle;rounded=0;orthogonalLoop=1;jettySize=auto;html=1;entryX=0.5;entryY=0;entryDx=0;entryDy=0;" parent="WIyWlLk6GJQsqaUBKTNV-1" source="7YlRBh8pq4Ufe2D6Z4gR-29" target="7YlRBh8pq4Ufe2D6Z4gR-30" edge="1">
          <mxGeometry relative="1" as="geometry" />
        </mxCell>
        <mxCell id="7YlRBh8pq4Ufe2D6Z4gR-29" value="(第1次)抄送会计" style="rounded=1;whiteSpace=wrap;html=1;" parent="WIyWlLk6GJQsqaUBKTNV-1" vertex="1">
          <mxGeometry x="270" y="1950" width="120" height="60" as="geometry" />
        </mxCell>
        <mxCell id="7YlRBh8pq4Ufe2D6Z4gR-129" style="edgeStyle=orthogonalEdgeStyle;rounded=0;orthogonalLoop=1;jettySize=auto;html=1;" parent="WIyWlLk6GJQsqaUBKTNV-1" source="7YlRBh8pq4Ufe2D6Z4gR-30" target="7YlRBh8pq4Ufe2D6Z4gR-33" edge="1">
          <mxGeometry relative="1" as="geometry" />
        </mxCell>
        <mxCell id="7YlRBh8pq4Ufe2D6Z4gR-140" style="edgeStyle=orthogonalEdgeStyle;rounded=0;orthogonalLoop=1;jettySize=auto;html=1;entryX=0;entryY=0.25;entryDx=0;entryDy=0;" parent="WIyWlLk6GJQsqaUBKTNV-1" source="7YlRBh8pq4Ufe2D6Z4gR-30" target="7YlRBh8pq4Ufe2D6Z4gR-63" edge="1">
          <mxGeometry relative="1" as="geometry" />
        </mxCell>
        <mxCell id="7YlRBh8pq4Ufe2D6Z4gR-30" value="(第1次)帐务员核销" style="rounded=1;whiteSpace=wrap;html=1;" parent="WIyWlLk6GJQsqaUBKTNV-1" vertex="1">
          <mxGeometry x="270" y="2050" width="120" height="60" as="geometry" />
        </mxCell>
        <mxCell id="7YlRBh8pq4Ufe2D6Z4gR-130" style="edgeStyle=orthogonalEdgeStyle;rounded=0;orthogonalLoop=1;jettySize=auto;html=1;" parent="WIyWlLk6GJQsqaUBKTNV-1" source="7YlRBh8pq4Ufe2D6Z4gR-33" target="7YlRBh8pq4Ufe2D6Z4gR-34" edge="1">
          <mxGeometry relative="1" as="geometry" />
        </mxCell>
        <mxCell id="7YlRBh8pq4Ufe2D6Z4gR-33" value="(第1次)上传装箱单，打印发货单、审批单" style="rounded=1;whiteSpace=wrap;html=1;" parent="WIyWlLk6GJQsqaUBKTNV-1" vertex="1">
          <mxGeometry x="270" y="2150" width="120" height="50" as="geometry" />
        </mxCell>
        <mxCell id="7YlRBh8pq4Ufe2D6Z4gR-133" style="edgeStyle=orthogonalEdgeStyle;rounded=0;orthogonalLoop=1;jettySize=auto;html=1;" parent="WIyWlLk6GJQsqaUBKTNV-1" source="7YlRBh8pq4Ufe2D6Z4gR-34" target="7YlRBh8pq4Ufe2D6Z4gR-36" edge="1">
          <mxGeometry relative="1" as="geometry" />
        </mxCell>
        <mxCell id="7YlRBh8pq4Ufe2D6Z4gR-34" value="订单类型" style="rhombus;whiteSpace=wrap;html=1;" parent="WIyWlLk6GJQsqaUBKTNV-1" vertex="1">
          <mxGeometry x="290" y="2230" width="80" height="80" as="geometry" />
        </mxCell>
        <mxCell id="7YlRBh8pq4Ufe2D6Z4gR-134" style="edgeStyle=orthogonalEdgeStyle;rounded=0;orthogonalLoop=1;jettySize=auto;html=1;" parent="WIyWlLk6GJQsqaUBKTNV-1" source="7YlRBh8pq4Ufe2D6Z4gR-36" target="7YlRBh8pq4Ufe2D6Z4gR-37" edge="1">
          <mxGeometry relative="1" as="geometry" />
        </mxCell>
        <mxCell id="7YlRBh8pq4Ufe2D6Z4gR-36" value="(第1次)销售助理上传报关文件" style="rounded=1;whiteSpace=wrap;html=1;" parent="WIyWlLk6GJQsqaUBKTNV-1" vertex="1">
          <mxGeometry x="270" y="2370" width="120" height="60" as="geometry" />
        </mxCell>
        <mxCell id="7YlRBh8pq4Ufe2D6Z4gR-135" style="edgeStyle=orthogonalEdgeStyle;rounded=0;orthogonalLoop=1;jettySize=auto;html=1;" parent="WIyWlLk6GJQsqaUBKTNV-1" source="7YlRBh8pq4Ufe2D6Z4gR-37" target="7YlRBh8pq4Ufe2D6Z4gR-38" edge="1">
          <mxGeometry relative="1" as="geometry" />
        </mxCell>
        <mxCell id="7YlRBh8pq4Ufe2D6Z4gR-37" value="(第1次)物流部审核" style="rounded=1;whiteSpace=wrap;html=1;" parent="WIyWlLk6GJQsqaUBKTNV-1" vertex="1">
          <mxGeometry x="270" y="2490" width="120" height="60" as="geometry" />
        </mxCell>
        <mxCell id="7YlRBh8pq4Ufe2D6Z4gR-136" style="edgeStyle=orthogonalEdgeStyle;rounded=0;orthogonalLoop=1;jettySize=auto;html=1;" parent="WIyWlLk6GJQsqaUBKTNV-1" source="7YlRBh8pq4Ufe2D6Z4gR-38" target="7YlRBh8pq4Ufe2D6Z4gR-39" edge="1">
          <mxGeometry relative="1" as="geometry" />
        </mxCell>
        <mxCell id="7YlRBh8pq4Ufe2D6Z4gR-38" value="(第1次)上传物流信息" style="rounded=1;whiteSpace=wrap;html=1;" parent="WIyWlLk6GJQsqaUBKTNV-1" vertex="1">
          <mxGeometry x="270" y="2600" width="120" height="60" as="geometry" />
        </mxCell>
        <mxCell id="7YlRBh8pq4Ufe2D6Z4gR-137" style="edgeStyle=orthogonalEdgeStyle;rounded=0;orthogonalLoop=1;jettySize=auto;html=1;" parent="WIyWlLk6GJQsqaUBKTNV-1" source="7YlRBh8pq4Ufe2D6Z4gR-39" target="7YlRBh8pq4Ufe2D6Z4gR-40" edge="1">
          <mxGeometry relative="1" as="geometry" />
        </mxCell>
        <mxCell id="7YlRBh8pq4Ufe2D6Z4gR-39" value="订单类型" style="rhombus;whiteSpace=wrap;html=1;" parent="WIyWlLk6GJQsqaUBKTNV-1" vertex="1">
          <mxGeometry x="290" y="2690" width="80" height="80" as="geometry" />
        </mxCell>
        <mxCell id="7YlRBh8pq4Ufe2D6Z4gR-138" style="edgeStyle=orthogonalEdgeStyle;rounded=0;orthogonalLoop=1;jettySize=auto;html=1;" parent="WIyWlLk6GJQsqaUBKTNV-1" source="7YlRBh8pq4Ufe2D6Z4gR-40" target="7YlRBh8pq4Ufe2D6Z4gR-41" edge="1">
          <mxGeometry relative="1" as="geometry" />
        </mxCell>
        <mxCell id="7YlRBh8pq4Ufe2D6Z4gR-40" value="判断是否走提单" style="rhombus;whiteSpace=wrap;html=1;" parent="WIyWlLk6GJQsqaUBKTNV-1" vertex="1">
          <mxGeometry x="290" y="2810" width="80" height="80" as="geometry" />
        </mxCell>
        <mxCell id="7YlRBh8pq4Ufe2D6Z4gR-139" style="edgeStyle=orthogonalEdgeStyle;rounded=0;orthogonalLoop=1;jettySize=auto;html=1;" parent="WIyWlLk6GJQsqaUBKTNV-1" source="7YlRBh8pq4Ufe2D6Z4gR-41" target="7YlRBh8pq4Ufe2D6Z4gR-42" edge="1">
          <mxGeometry relative="1" as="geometry" />
        </mxCell>
        <mxCell id="7YlRBh8pq4Ufe2D6Z4gR-41" value="(第1次)上传提单事项" style="rounded=1;whiteSpace=wrap;html=1;" parent="WIyWlLk6GJQsqaUBKTNV-1" vertex="1">
          <mxGeometry x="270" y="2930" width="120" height="60" as="geometry" />
        </mxCell>
        <mxCell id="7YlRBh8pq4Ufe2D6Z4gR-106" style="edgeStyle=orthogonalEdgeStyle;rounded=0;orthogonalLoop=1;jettySize=auto;html=1;entryX=0;entryY=0.5;entryDx=0;entryDy=0;" parent="WIyWlLk6GJQsqaUBKTNV-1" source="7YlRBh8pq4Ufe2D6Z4gR-42" target="7YlRBh8pq4Ufe2D6Z4gR-102" edge="1">
          <mxGeometry relative="1" as="geometry">
            <Array as="points">
              <mxPoint x="374" y="3260" />
            </Array>
          </mxGeometry>
        </mxCell>
        <mxCell id="7YlRBh8pq4Ufe2D6Z4gR-42" value="(第1次)客户到货确认" style="rounded=1;whiteSpace=wrap;html=1;" parent="WIyWlLk6GJQsqaUBKTNV-1" vertex="1">
          <mxGeometry x="270" y="3040" width="120" height="60" as="geometry" />
        </mxCell>
        <mxCell id="7YlRBh8pq4Ufe2D6Z4gR-43" value="（第2次）PMC确认库存" style="rounded=1;whiteSpace=wrap;html=1;" parent="WIyWlLk6GJQsqaUBKTNV-1" vertex="1">
          <mxGeometry x="570" y="1150" width="120" height="60" as="geometry" />
        </mxCell>
        <mxCell id="7YlRBh8pq4Ufe2D6Z4gR-44" value="（第2次）PMC负责人审批" style="rounded=1;whiteSpace=wrap;html=1;" parent="WIyWlLk6GJQsqaUBKTNV-1" vertex="1">
          <mxGeometry x="570" y="1260" width="120" height="60" as="geometry" />
        </mxCell>
        <mxCell id="7YlRBh8pq4Ufe2D6Z4gR-45" value="（第2次）发货通知单" style="rounded=1;whiteSpace=wrap;html=1;" parent="WIyWlLk6GJQsqaUBKTNV-1" vertex="1">
          <mxGeometry x="570" y="1360" width="120" height="60" as="geometry" />
        </mxCell>
        <mxCell id="7YlRBh8pq4Ufe2D6Z4gR-46" value="(第2次)备货" style="rounded=1;whiteSpace=wrap;html=1;" parent="WIyWlLk6GJQsqaUBKTNV-1" vertex="1">
          <mxGeometry x="570" y="1450" width="120" height="60" as="geometry" />
        </mxCell>
        <mxCell id="TyYmmWe8gpWV6a3Zkya5-8" style="edgeStyle=orthogonalEdgeStyle;rounded=0;orthogonalLoop=1;jettySize=auto;html=1;entryX=0;entryY=0.5;entryDx=0;entryDy=0;" edge="1" parent="WIyWlLk6GJQsqaUBKTNV-1" source="7YlRBh8pq4Ufe2D6Z4gR-49" target="7YlRBh8pq4Ufe2D6Z4gR-102">
          <mxGeometry relative="1" as="geometry">
            <Array as="points">
              <mxPoint x="535" y="3260" />
            </Array>
          </mxGeometry>
        </mxCell>
        <mxCell id="7YlRBh8pq4Ufe2D6Z4gR-49" value="(第2次)研发助理" style="rounded=1;whiteSpace=wrap;html=1;" parent="WIyWlLk6GJQsqaUBKTNV-1" vertex="1">
          <mxGeometry x="490" y="1700" width="90" height="54" as="geometry" />
        </mxCell>
        <mxCell id="7YlRBh8pq4Ufe2D6Z4gR-50" value="（第2次）抄送总裁" style="rounded=1;whiteSpace=wrap;html=1;" parent="WIyWlLk6GJQsqaUBKTNV-1" vertex="1">
          <mxGeometry x="580" y="1754" width="120" height="60" as="geometry" />
        </mxCell>
        <mxCell id="7YlRBh8pq4Ufe2D6Z4gR-51" value="（第2次）抄送财务负责人" style="rounded=1;whiteSpace=wrap;html=1;" parent="WIyWlLk6GJQsqaUBKTNV-1" vertex="1">
          <mxGeometry x="580" y="1860" width="120" height="60" as="geometry" />
        </mxCell>
        <mxCell id="7YlRBh8pq4Ufe2D6Z4gR-59" value="订单类型" style="rhombus;whiteSpace=wrap;html=1;" parent="WIyWlLk6GJQsqaUBKTNV-1" vertex="1">
          <mxGeometry x="600" y="2690" width="80" height="80" as="geometry" />
        </mxCell>
        <mxCell id="7YlRBh8pq4Ufe2D6Z4gR-60" value="判断是否走提单" style="rhombus;whiteSpace=wrap;html=1;" parent="WIyWlLk6GJQsqaUBKTNV-1" vertex="1">
          <mxGeometry x="600" y="2810" width="80" height="80" as="geometry" />
        </mxCell>
        <mxCell id="7YlRBh8pq4Ufe2D6Z4gR-141" style="edgeStyle=orthogonalEdgeStyle;rounded=0;orthogonalLoop=1;jettySize=auto;html=1;" parent="WIyWlLk6GJQsqaUBKTNV-1" source="7YlRBh8pq4Ufe2D6Z4gR-63" target="7YlRBh8pq4Ufe2D6Z4gR-64" edge="1">
          <mxGeometry relative="1" as="geometry" />
        </mxCell>
        <mxCell id="7YlRBh8pq4Ufe2D6Z4gR-63" value="（第2次）PMC确认库存" style="rounded=1;whiteSpace=wrap;html=1;" parent="WIyWlLk6GJQsqaUBKTNV-1" vertex="1">
          <mxGeometry x="570" y="1150" width="120" height="60" as="geometry" />
        </mxCell>
        <mxCell id="7YlRBh8pq4Ufe2D6Z4gR-142" style="edgeStyle=orthogonalEdgeStyle;rounded=0;orthogonalLoop=1;jettySize=auto;html=1;entryX=0.5;entryY=0;entryDx=0;entryDy=0;" parent="WIyWlLk6GJQsqaUBKTNV-1" source="7YlRBh8pq4Ufe2D6Z4gR-64" target="7YlRBh8pq4Ufe2D6Z4gR-65" edge="1">
          <mxGeometry relative="1" as="geometry" />
        </mxCell>
        <mxCell id="7YlRBh8pq4Ufe2D6Z4gR-64" value="（第2次）PMC负责人审批" style="rounded=1;whiteSpace=wrap;html=1;" parent="WIyWlLk6GJQsqaUBKTNV-1" vertex="1">
          <mxGeometry x="570" y="1260" width="120" height="60" as="geometry" />
        </mxCell>
        <mxCell id="7YlRBh8pq4Ufe2D6Z4gR-143" style="edgeStyle=orthogonalEdgeStyle;rounded=0;orthogonalLoop=1;jettySize=auto;html=1;entryX=0.5;entryY=0;entryDx=0;entryDy=0;" parent="WIyWlLk6GJQsqaUBKTNV-1" source="7YlRBh8pq4Ufe2D6Z4gR-65" target="7YlRBh8pq4Ufe2D6Z4gR-66" edge="1">
          <mxGeometry relative="1" as="geometry" />
        </mxCell>
        <mxCell id="7YlRBh8pq4Ufe2D6Z4gR-65" value="（第2次）发货通知单" style="rounded=1;whiteSpace=wrap;html=1;" parent="WIyWlLk6GJQsqaUBKTNV-1" vertex="1">
          <mxGeometry x="570" y="1360" width="120" height="60" as="geometry" />
        </mxCell>
        <mxCell id="TyYmmWe8gpWV6a3Zkya5-5" style="edgeStyle=orthogonalEdgeStyle;rounded=0;orthogonalLoop=1;jettySize=auto;html=1;" edge="1" parent="WIyWlLk6GJQsqaUBKTNV-1" source="7YlRBh8pq4Ufe2D6Z4gR-66">
          <mxGeometry relative="1" as="geometry">
            <mxPoint x="530" y="1570" as="targetPoint" />
          </mxGeometry>
        </mxCell>
        <mxCell id="TyYmmWe8gpWV6a3Zkya5-7" style="edgeStyle=orthogonalEdgeStyle;rounded=0;orthogonalLoop=1;jettySize=auto;html=1;" edge="1" parent="WIyWlLk6GJQsqaUBKTNV-1" source="7YlRBh8pq4Ufe2D6Z4gR-66">
          <mxGeometry relative="1" as="geometry">
            <mxPoint x="630" y="1750" as="targetPoint" />
          </mxGeometry>
        </mxCell>
        <mxCell id="7YlRBh8pq4Ufe2D6Z4gR-66" value="(第2次)备货" style="rounded=1;whiteSpace=wrap;html=1;" parent="WIyWlLk6GJQsqaUBKTNV-1" vertex="1">
          <mxGeometry x="570" y="1450" width="120" height="60" as="geometry" />
        </mxCell>
        <mxCell id="TyYmmWe8gpWV6a3Zkya5-6" style="edgeStyle=orthogonalEdgeStyle;rounded=0;orthogonalLoop=1;jettySize=auto;html=1;entryX=0.5;entryY=0;entryDx=0;entryDy=0;" edge="1" parent="WIyWlLk6GJQsqaUBKTNV-1" source="7YlRBh8pq4Ufe2D6Z4gR-67" target="7YlRBh8pq4Ufe2D6Z4gR-49">
          <mxGeometry relative="1" as="geometry" />
        </mxCell>
        <mxCell id="7YlRBh8pq4Ufe2D6Z4gR-67" value="(第2次)上传SN" style="rounded=1;whiteSpace=wrap;html=1;" parent="WIyWlLk6GJQsqaUBKTNV-1" vertex="1">
          <mxGeometry x="475" y="1570" width="120" height="60" as="geometry" />
        </mxCell>
        <mxCell id="7YlRBh8pq4Ufe2D6Z4gR-148" style="edgeStyle=orthogonalEdgeStyle;rounded=0;orthogonalLoop=1;jettySize=auto;html=1;" parent="WIyWlLk6GJQsqaUBKTNV-1" target="7YlRBh8pq4Ufe2D6Z4gR-70" edge="1">
          <mxGeometry relative="1" as="geometry">
            <mxPoint x="640" y="1814" as="sourcePoint" />
          </mxGeometry>
        </mxCell>
        <mxCell id="7YlRBh8pq4Ufe2D6Z4gR-149" style="edgeStyle=orthogonalEdgeStyle;rounded=0;orthogonalLoop=1;jettySize=auto;html=1;" parent="WIyWlLk6GJQsqaUBKTNV-1" source="7YlRBh8pq4Ufe2D6Z4gR-70" target="7YlRBh8pq4Ufe2D6Z4gR-71" edge="1">
          <mxGeometry relative="1" as="geometry" />
        </mxCell>
        <mxCell id="7YlRBh8pq4Ufe2D6Z4gR-70" value="（第2次）抄送财务负责人" style="rounded=1;whiteSpace=wrap;html=1;" parent="WIyWlLk6GJQsqaUBKTNV-1" vertex="1">
          <mxGeometry x="580" y="1860" width="120" height="60" as="geometry" />
        </mxCell>
        <mxCell id="7YlRBh8pq4Ufe2D6Z4gR-150" style="edgeStyle=orthogonalEdgeStyle;rounded=0;orthogonalLoop=1;jettySize=auto;html=1;" parent="WIyWlLk6GJQsqaUBKTNV-1" source="7YlRBh8pq4Ufe2D6Z4gR-71" target="7YlRBh8pq4Ufe2D6Z4gR-72" edge="1">
          <mxGeometry relative="1" as="geometry" />
        </mxCell>
        <mxCell id="7YlRBh8pq4Ufe2D6Z4gR-71" value="（第2次）抄送会计" style="rounded=1;whiteSpace=wrap;html=1;" parent="WIyWlLk6GJQsqaUBKTNV-1" vertex="1">
          <mxGeometry x="580" y="1960" width="120" height="50" as="geometry" />
        </mxCell>
        <mxCell id="7YlRBh8pq4Ufe2D6Z4gR-151" style="edgeStyle=orthogonalEdgeStyle;rounded=0;orthogonalLoop=1;jettySize=auto;html=1;entryX=0.5;entryY=0;entryDx=0;entryDy=0;" parent="WIyWlLk6GJQsqaUBKTNV-1" source="7YlRBh8pq4Ufe2D6Z4gR-72" target="7YlRBh8pq4Ufe2D6Z4gR-73" edge="1">
          <mxGeometry relative="1" as="geometry" />
        </mxCell>
        <mxCell id="7YlRBh8pq4Ufe2D6Z4gR-72" value="（第2次）帐务员核销" style="rounded=1;whiteSpace=wrap;html=1;" parent="WIyWlLk6GJQsqaUBKTNV-1" vertex="1">
          <mxGeometry x="580" y="2050" width="120" height="60" as="geometry" />
        </mxCell>
        <mxCell id="7YlRBh8pq4Ufe2D6Z4gR-152" style="edgeStyle=orthogonalEdgeStyle;rounded=0;orthogonalLoop=1;jettySize=auto;html=1;" parent="WIyWlLk6GJQsqaUBKTNV-1" source="7YlRBh8pq4Ufe2D6Z4gR-73" target="7YlRBh8pq4Ufe2D6Z4gR-74" edge="1">
          <mxGeometry relative="1" as="geometry" />
        </mxCell>
        <mxCell id="7YlRBh8pq4Ufe2D6Z4gR-73" value="（第2次）上传装箱单，打印发货单、审批单" style="rounded=1;whiteSpace=wrap;html=1;" parent="WIyWlLk6GJQsqaUBKTNV-1" vertex="1">
          <mxGeometry x="580" y="2150" width="120" height="50" as="geometry" />
        </mxCell>
        <mxCell id="7YlRBh8pq4Ufe2D6Z4gR-153" style="edgeStyle=orthogonalEdgeStyle;rounded=0;orthogonalLoop=1;jettySize=auto;html=1;entryX=0.5;entryY=0;entryDx=0;entryDy=0;" parent="WIyWlLk6GJQsqaUBKTNV-1" source="7YlRBh8pq4Ufe2D6Z4gR-74" target="7YlRBh8pq4Ufe2D6Z4gR-75" edge="1">
          <mxGeometry relative="1" as="geometry" />
        </mxCell>
        <mxCell id="7YlRBh8pq4Ufe2D6Z4gR-74" value="订单类型" style="rhombus;whiteSpace=wrap;html=1;" parent="WIyWlLk6GJQsqaUBKTNV-1" vertex="1">
          <mxGeometry x="600" y="2230" width="80" height="80" as="geometry" />
        </mxCell>
        <mxCell id="7YlRBh8pq4Ufe2D6Z4gR-154" style="edgeStyle=orthogonalEdgeStyle;rounded=0;orthogonalLoop=1;jettySize=auto;html=1;" parent="WIyWlLk6GJQsqaUBKTNV-1" source="7YlRBh8pq4Ufe2D6Z4gR-75" target="7YlRBh8pq4Ufe2D6Z4gR-76" edge="1">
          <mxGeometry relative="1" as="geometry" />
        </mxCell>
        <mxCell id="7YlRBh8pq4Ufe2D6Z4gR-75" value="（第2次）销售助理上传报关文件" style="rounded=1;whiteSpace=wrap;html=1;" parent="WIyWlLk6GJQsqaUBKTNV-1" vertex="1">
          <mxGeometry x="580" y="2370" width="120" height="60" as="geometry" />
        </mxCell>
        <mxCell id="7YlRBh8pq4Ufe2D6Z4gR-155" style="edgeStyle=orthogonalEdgeStyle;rounded=0;orthogonalLoop=1;jettySize=auto;html=1;" parent="WIyWlLk6GJQsqaUBKTNV-1" source="7YlRBh8pq4Ufe2D6Z4gR-76" target="7YlRBh8pq4Ufe2D6Z4gR-77" edge="1">
          <mxGeometry relative="1" as="geometry" />
        </mxCell>
        <mxCell id="7YlRBh8pq4Ufe2D6Z4gR-76" value="（第2次）物流审核" style="rounded=1;whiteSpace=wrap;html=1;" parent="WIyWlLk6GJQsqaUBKTNV-1" vertex="1">
          <mxGeometry x="580" y="2490" width="120" height="60" as="geometry" />
        </mxCell>
        <mxCell id="7YlRBh8pq4Ufe2D6Z4gR-156" style="edgeStyle=orthogonalEdgeStyle;rounded=0;orthogonalLoop=1;jettySize=auto;html=1;entryX=0.5;entryY=0;entryDx=0;entryDy=0;" parent="WIyWlLk6GJQsqaUBKTNV-1" source="7YlRBh8pq4Ufe2D6Z4gR-77" target="7YlRBh8pq4Ufe2D6Z4gR-78" edge="1">
          <mxGeometry relative="1" as="geometry" />
        </mxCell>
        <mxCell id="7YlRBh8pq4Ufe2D6Z4gR-77" value="(第2次)上传物流信息" style="rounded=1;whiteSpace=wrap;html=1;" parent="WIyWlLk6GJQsqaUBKTNV-1" vertex="1">
          <mxGeometry x="580" y="2590" width="120" height="60" as="geometry" />
        </mxCell>
        <mxCell id="7YlRBh8pq4Ufe2D6Z4gR-157" style="edgeStyle=orthogonalEdgeStyle;rounded=0;orthogonalLoop=1;jettySize=auto;html=1;" parent="WIyWlLk6GJQsqaUBKTNV-1" source="7YlRBh8pq4Ufe2D6Z4gR-78" target="7YlRBh8pq4Ufe2D6Z4gR-79" edge="1">
          <mxGeometry relative="1" as="geometry" />
        </mxCell>
        <mxCell id="7YlRBh8pq4Ufe2D6Z4gR-78" value="订单类型" style="rhombus;whiteSpace=wrap;html=1;" parent="WIyWlLk6GJQsqaUBKTNV-1" vertex="1">
          <mxGeometry x="600" y="2690" width="80" height="80" as="geometry" />
        </mxCell>
        <mxCell id="7YlRBh8pq4Ufe2D6Z4gR-158" style="edgeStyle=orthogonalEdgeStyle;rounded=0;orthogonalLoop=1;jettySize=auto;html=1;" parent="WIyWlLk6GJQsqaUBKTNV-1" source="7YlRBh8pq4Ufe2D6Z4gR-79" target="7YlRBh8pq4Ufe2D6Z4gR-80" edge="1">
          <mxGeometry relative="1" as="geometry" />
        </mxCell>
        <mxCell id="7YlRBh8pq4Ufe2D6Z4gR-79" value="判断是否走提单" style="rhombus;whiteSpace=wrap;html=1;" parent="WIyWlLk6GJQsqaUBKTNV-1" vertex="1">
          <mxGeometry x="600" y="2810" width="80" height="80" as="geometry" />
        </mxCell>
        <mxCell id="7YlRBh8pq4Ufe2D6Z4gR-159" style="edgeStyle=orthogonalEdgeStyle;rounded=0;orthogonalLoop=1;jettySize=auto;html=1;" parent="WIyWlLk6GJQsqaUBKTNV-1" source="7YlRBh8pq4Ufe2D6Z4gR-80" target="7YlRBh8pq4Ufe2D6Z4gR-81" edge="1">
          <mxGeometry relative="1" as="geometry" />
        </mxCell>
        <mxCell id="7YlRBh8pq4Ufe2D6Z4gR-80" value="(第2次)上传提单事项" style="rounded=1;whiteSpace=wrap;html=1;" parent="WIyWlLk6GJQsqaUBKTNV-1" vertex="1">
          <mxGeometry x="580" y="2930" width="120" height="60" as="geometry" />
        </mxCell>
        <mxCell id="7YlRBh8pq4Ufe2D6Z4gR-105" style="edgeStyle=orthogonalEdgeStyle;rounded=0;orthogonalLoop=1;jettySize=auto;html=1;" parent="WIyWlLk6GJQsqaUBKTNV-1" source="7YlRBh8pq4Ufe2D6Z4gR-81" target="7YlRBh8pq4Ufe2D6Z4gR-102" edge="1">
          <mxGeometry relative="1" as="geometry" />
        </mxCell>
        <mxCell id="7YlRBh8pq4Ufe2D6Z4gR-81" value="(第2次)客户到货确认" style="rounded=1;whiteSpace=wrap;html=1;" parent="WIyWlLk6GJQsqaUBKTNV-1" vertex="1">
          <mxGeometry x="580" y="3040" width="120" height="60" as="geometry" />
        </mxCell>
        <mxCell id="7YlRBh8pq4Ufe2D6Z4gR-167" style="edgeStyle=orthogonalEdgeStyle;rounded=0;orthogonalLoop=1;jettySize=auto;html=1;entryX=0.5;entryY=0;entryDx=0;entryDy=0;" parent="WIyWlLk6GJQsqaUBKTNV-1" source="7YlRBh8pq4Ufe2D6Z4gR-82" target="7YlRBh8pq4Ufe2D6Z4gR-83" edge="1">
          <mxGeometry relative="1" as="geometry" />
        </mxCell>
        <mxCell id="7YlRBh8pq4Ufe2D6Z4gR-82" value="（第3次）PMC确认库存" style="rounded=1;whiteSpace=wrap;html=1;" parent="WIyWlLk6GJQsqaUBKTNV-1" vertex="1">
          <mxGeometry x="800" y="1150" width="120" height="60" as="geometry" />
        </mxCell>
        <mxCell id="7YlRBh8pq4Ufe2D6Z4gR-168" style="edgeStyle=orthogonalEdgeStyle;rounded=0;orthogonalLoop=1;jettySize=auto;html=1;entryX=0.5;entryY=0;entryDx=0;entryDy=0;" parent="WIyWlLk6GJQsqaUBKTNV-1" source="7YlRBh8pq4Ufe2D6Z4gR-83" target="7YlRBh8pq4Ufe2D6Z4gR-84" edge="1">
          <mxGeometry relative="1" as="geometry" />
        </mxCell>
        <mxCell id="7YlRBh8pq4Ufe2D6Z4gR-83" value="（第3次）PMC负责人审批" style="rounded=1;whiteSpace=wrap;html=1;" parent="WIyWlLk6GJQsqaUBKTNV-1" vertex="1">
          <mxGeometry x="800" y="1260" width="120" height="60" as="geometry" />
        </mxCell>
        <mxCell id="7YlRBh8pq4Ufe2D6Z4gR-169" style="edgeStyle=orthogonalEdgeStyle;rounded=0;orthogonalLoop=1;jettySize=auto;html=1;" parent="WIyWlLk6GJQsqaUBKTNV-1" source="7YlRBh8pq4Ufe2D6Z4gR-84" target="7YlRBh8pq4Ufe2D6Z4gR-85" edge="1">
          <mxGeometry relative="1" as="geometry" />
        </mxCell>
        <mxCell id="7YlRBh8pq4Ufe2D6Z4gR-84" value="（第3次）发货通知单" style="rounded=1;whiteSpace=wrap;html=1;" parent="WIyWlLk6GJQsqaUBKTNV-1" vertex="1">
          <mxGeometry x="800" y="1360" width="120" height="60" as="geometry" />
        </mxCell>
        <mxCell id="TyYmmWe8gpWV6a3Zkya5-9" style="edgeStyle=orthogonalEdgeStyle;rounded=0;orthogonalLoop=1;jettySize=auto;html=1;entryX=0.5;entryY=0;entryDx=0;entryDy=0;" edge="1" parent="WIyWlLk6GJQsqaUBKTNV-1" source="7YlRBh8pq4Ufe2D6Z4gR-85" target="7YlRBh8pq4Ufe2D6Z4gR-86">
          <mxGeometry relative="1" as="geometry" />
        </mxCell>
        <mxCell id="TyYmmWe8gpWV6a3Zkya5-11" style="edgeStyle=orthogonalEdgeStyle;rounded=0;orthogonalLoop=1;jettySize=auto;html=1;" edge="1" parent="WIyWlLk6GJQsqaUBKTNV-1" source="7YlRBh8pq4Ufe2D6Z4gR-85" target="7YlRBh8pq4Ufe2D6Z4gR-88">
          <mxGeometry relative="1" as="geometry" />
        </mxCell>
        <mxCell id="7YlRBh8pq4Ufe2D6Z4gR-85" value="(第3次)备货" style="rounded=1;whiteSpace=wrap;html=1;" parent="WIyWlLk6GJQsqaUBKTNV-1" vertex="1">
          <mxGeometry x="800" y="1450" width="120" height="60" as="geometry" />
        </mxCell>
        <mxCell id="TyYmmWe8gpWV6a3Zkya5-10" style="edgeStyle=orthogonalEdgeStyle;rounded=0;orthogonalLoop=1;jettySize=auto;html=1;" edge="1" parent="WIyWlLk6GJQsqaUBKTNV-1" source="7YlRBh8pq4Ufe2D6Z4gR-86" target="7YlRBh8pq4Ufe2D6Z4gR-101">
          <mxGeometry relative="1" as="geometry" />
        </mxCell>
        <mxCell id="7YlRBh8pq4Ufe2D6Z4gR-86" value="(第3次)上传SN" style="rounded=1;whiteSpace=wrap;html=1;" parent="WIyWlLk6GJQsqaUBKTNV-1" vertex="1">
          <mxGeometry x="950" y="1540" width="120" height="60" as="geometry" />
        </mxCell>
        <mxCell id="7YlRBh8pq4Ufe2D6Z4gR-177" style="edgeStyle=orthogonalEdgeStyle;rounded=0;orthogonalLoop=1;jettySize=auto;html=1;" parent="WIyWlLk6GJQsqaUBKTNV-1" source="7YlRBh8pq4Ufe2D6Z4gR-88" target="7YlRBh8pq4Ufe2D6Z4gR-89" edge="1">
          <mxGeometry relative="1" as="geometry" />
        </mxCell>
        <mxCell id="7YlRBh8pq4Ufe2D6Z4gR-88" value="（第3次）抄送总裁" style="rounded=1;whiteSpace=wrap;html=1;" parent="WIyWlLk6GJQsqaUBKTNV-1" vertex="1">
          <mxGeometry x="800" y="1770" width="120" height="60" as="geometry" />
        </mxCell>
        <mxCell id="7YlRBh8pq4Ufe2D6Z4gR-178" style="edgeStyle=orthogonalEdgeStyle;rounded=0;orthogonalLoop=1;jettySize=auto;html=1;" parent="WIyWlLk6GJQsqaUBKTNV-1" source="7YlRBh8pq4Ufe2D6Z4gR-89" target="7YlRBh8pq4Ufe2D6Z4gR-90" edge="1">
          <mxGeometry relative="1" as="geometry" />
        </mxCell>
        <mxCell id="7YlRBh8pq4Ufe2D6Z4gR-89" value="（第3次）抄送财务负责人" style="rounded=1;whiteSpace=wrap;html=1;" parent="WIyWlLk6GJQsqaUBKTNV-1" vertex="1">
          <mxGeometry x="800" y="1870" width="120" height="60" as="geometry" />
        </mxCell>
        <mxCell id="7YlRBh8pq4Ufe2D6Z4gR-179" style="edgeStyle=orthogonalEdgeStyle;rounded=0;orthogonalLoop=1;jettySize=auto;html=1;" parent="WIyWlLk6GJQsqaUBKTNV-1" source="7YlRBh8pq4Ufe2D6Z4gR-90" target="7YlRBh8pq4Ufe2D6Z4gR-91" edge="1">
          <mxGeometry relative="1" as="geometry" />
        </mxCell>
        <mxCell id="7YlRBh8pq4Ufe2D6Z4gR-90" value="（第3次）抄送会计" style="rounded=1;whiteSpace=wrap;html=1;" parent="WIyWlLk6GJQsqaUBKTNV-1" vertex="1">
          <mxGeometry x="800" y="1970" width="120" height="60" as="geometry" />
        </mxCell>
        <mxCell id="7YlRBh8pq4Ufe2D6Z4gR-180" style="edgeStyle=orthogonalEdgeStyle;rounded=0;orthogonalLoop=1;jettySize=auto;html=1;" parent="WIyWlLk6GJQsqaUBKTNV-1" source="7YlRBh8pq4Ufe2D6Z4gR-91" target="7YlRBh8pq4Ufe2D6Z4gR-92" edge="1">
          <mxGeometry relative="1" as="geometry" />
        </mxCell>
        <mxCell id="7YlRBh8pq4Ufe2D6Z4gR-91" value="（第3次）帐务员核销" style="rounded=1;whiteSpace=wrap;html=1;" parent="WIyWlLk6GJQsqaUBKTNV-1" vertex="1">
          <mxGeometry x="800" y="2060" width="120" height="60" as="geometry" />
        </mxCell>
        <mxCell id="7YlRBh8pq4Ufe2D6Z4gR-181" style="edgeStyle=orthogonalEdgeStyle;rounded=0;orthogonalLoop=1;jettySize=auto;html=1;" parent="WIyWlLk6GJQsqaUBKTNV-1" source="7YlRBh8pq4Ufe2D6Z4gR-92" target="7YlRBh8pq4Ufe2D6Z4gR-93" edge="1">
          <mxGeometry relative="1" as="geometry" />
        </mxCell>
        <mxCell id="7YlRBh8pq4Ufe2D6Z4gR-92" value="（第3次）上传装箱单，打印发货单、审批单" style="rounded=1;whiteSpace=wrap;html=1;" parent="WIyWlLk6GJQsqaUBKTNV-1" vertex="1">
          <mxGeometry x="800" y="2150" width="120" height="50" as="geometry" />
        </mxCell>
        <mxCell id="7YlRBh8pq4Ufe2D6Z4gR-182" style="edgeStyle=orthogonalEdgeStyle;rounded=0;orthogonalLoop=1;jettySize=auto;html=1;entryX=0.5;entryY=0;entryDx=0;entryDy=0;" parent="WIyWlLk6GJQsqaUBKTNV-1" source="7YlRBh8pq4Ufe2D6Z4gR-93" target="7YlRBh8pq4Ufe2D6Z4gR-94" edge="1">
          <mxGeometry relative="1" as="geometry" />
        </mxCell>
        <mxCell id="7YlRBh8pq4Ufe2D6Z4gR-93" value="订单类型" style="rhombus;whiteSpace=wrap;html=1;" parent="WIyWlLk6GJQsqaUBKTNV-1" vertex="1">
          <mxGeometry x="820" y="2240" width="80" height="80" as="geometry" />
        </mxCell>
        <mxCell id="7YlRBh8pq4Ufe2D6Z4gR-183" style="edgeStyle=orthogonalEdgeStyle;rounded=0;orthogonalLoop=1;jettySize=auto;html=1;" parent="WIyWlLk6GJQsqaUBKTNV-1" source="7YlRBh8pq4Ufe2D6Z4gR-94" target="7YlRBh8pq4Ufe2D6Z4gR-95" edge="1">
          <mxGeometry relative="1" as="geometry" />
        </mxCell>
        <mxCell id="7YlRBh8pq4Ufe2D6Z4gR-94" value="（第3次）销售助理上传报关文件" style="rounded=1;whiteSpace=wrap;html=1;" parent="WIyWlLk6GJQsqaUBKTNV-1" vertex="1">
          <mxGeometry x="800" y="2370" width="120" height="60" as="geometry" />
        </mxCell>
        <mxCell id="7YlRBh8pq4Ufe2D6Z4gR-184" style="edgeStyle=orthogonalEdgeStyle;rounded=0;orthogonalLoop=1;jettySize=auto;html=1;" parent="WIyWlLk6GJQsqaUBKTNV-1" source="7YlRBh8pq4Ufe2D6Z4gR-95" target="7YlRBh8pq4Ufe2D6Z4gR-96" edge="1">
          <mxGeometry relative="1" as="geometry" />
        </mxCell>
        <mxCell id="7YlRBh8pq4Ufe2D6Z4gR-95" value="（第3次）物流审核" style="rounded=1;whiteSpace=wrap;html=1;" parent="WIyWlLk6GJQsqaUBKTNV-1" vertex="1">
          <mxGeometry x="800" y="2490" width="120" height="60" as="geometry" />
        </mxCell>
        <mxCell id="7YlRBh8pq4Ufe2D6Z4gR-185" style="edgeStyle=orthogonalEdgeStyle;rounded=0;orthogonalLoop=1;jettySize=auto;html=1;" parent="WIyWlLk6GJQsqaUBKTNV-1" source="7YlRBh8pq4Ufe2D6Z4gR-96" target="7YlRBh8pq4Ufe2D6Z4gR-97" edge="1">
          <mxGeometry relative="1" as="geometry" />
        </mxCell>
        <mxCell id="7YlRBh8pq4Ufe2D6Z4gR-96" value="(第3次)上传物流信息" style="rounded=1;whiteSpace=wrap;html=1;" parent="WIyWlLk6GJQsqaUBKTNV-1" vertex="1">
          <mxGeometry x="800" y="2600" width="120" height="60" as="geometry" />
        </mxCell>
        <mxCell id="7YlRBh8pq4Ufe2D6Z4gR-187" style="edgeStyle=orthogonalEdgeStyle;rounded=0;orthogonalLoop=1;jettySize=auto;html=1;entryX=0.5;entryY=0;entryDx=0;entryDy=0;" parent="WIyWlLk6GJQsqaUBKTNV-1" source="7YlRBh8pq4Ufe2D6Z4gR-97" target="7YlRBh8pq4Ufe2D6Z4gR-98" edge="1">
          <mxGeometry relative="1" as="geometry" />
        </mxCell>
        <mxCell id="7YlRBh8pq4Ufe2D6Z4gR-97" value="订单类型" style="rhombus;whiteSpace=wrap;html=1;" parent="WIyWlLk6GJQsqaUBKTNV-1" vertex="1">
          <mxGeometry x="820" y="2690" width="80" height="80" as="geometry" />
        </mxCell>
        <mxCell id="7YlRBh8pq4Ufe2D6Z4gR-188" style="edgeStyle=orthogonalEdgeStyle;rounded=0;orthogonalLoop=1;jettySize=auto;html=1;" parent="WIyWlLk6GJQsqaUBKTNV-1" source="7YlRBh8pq4Ufe2D6Z4gR-98" target="7YlRBh8pq4Ufe2D6Z4gR-99" edge="1">
          <mxGeometry relative="1" as="geometry" />
        </mxCell>
        <mxCell id="7YlRBh8pq4Ufe2D6Z4gR-98" value="判断是否走提单" style="rhombus;whiteSpace=wrap;html=1;" parent="WIyWlLk6GJQsqaUBKTNV-1" vertex="1">
          <mxGeometry x="820" y="2810" width="80" height="80" as="geometry" />
        </mxCell>
        <mxCell id="7YlRBh8pq4Ufe2D6Z4gR-189" style="edgeStyle=orthogonalEdgeStyle;rounded=0;orthogonalLoop=1;jettySize=auto;html=1;entryX=0.5;entryY=0;entryDx=0;entryDy=0;" parent="WIyWlLk6GJQsqaUBKTNV-1" source="7YlRBh8pq4Ufe2D6Z4gR-99" target="7YlRBh8pq4Ufe2D6Z4gR-100" edge="1">
          <mxGeometry relative="1" as="geometry" />
        </mxCell>
        <mxCell id="7YlRBh8pq4Ufe2D6Z4gR-99" value="(第3次)上传提单事项" style="rounded=1;whiteSpace=wrap;html=1;" parent="WIyWlLk6GJQsqaUBKTNV-1" vertex="1">
          <mxGeometry x="800" y="2940" width="120" height="60" as="geometry" />
        </mxCell>
        <mxCell id="7YlRBh8pq4Ufe2D6Z4gR-104" style="edgeStyle=orthogonalEdgeStyle;rounded=0;orthogonalLoop=1;jettySize=auto;html=1;entryX=1;entryY=0.5;entryDx=0;entryDy=0;" parent="WIyWlLk6GJQsqaUBKTNV-1" source="7YlRBh8pq4Ufe2D6Z4gR-100" target="7YlRBh8pq4Ufe2D6Z4gR-102" edge="1">
          <mxGeometry relative="1" as="geometry">
            <Array as="points">
              <mxPoint x="880" y="3260" />
            </Array>
          </mxGeometry>
        </mxCell>
        <mxCell id="7YlRBh8pq4Ufe2D6Z4gR-100" value="(第3次)客户到货确认" style="rounded=1;whiteSpace=wrap;html=1;" parent="WIyWlLk6GJQsqaUBKTNV-1" vertex="1">
          <mxGeometry x="800" y="3050" width="120" height="60" as="geometry" />
        </mxCell>
        <mxCell id="TyYmmWe8gpWV6a3Zkya5-12" style="edgeStyle=orthogonalEdgeStyle;rounded=0;orthogonalLoop=1;jettySize=auto;html=1;entryX=1;entryY=0.5;entryDx=0;entryDy=0;" edge="1" parent="WIyWlLk6GJQsqaUBKTNV-1" source="7YlRBh8pq4Ufe2D6Z4gR-101" target="7YlRBh8pq4Ufe2D6Z4gR-102">
          <mxGeometry relative="1" as="geometry">
            <Array as="points">
              <mxPoint x="1010" y="3260" />
            </Array>
          </mxGeometry>
        </mxCell>
        <mxCell id="7YlRBh8pq4Ufe2D6Z4gR-101" value="(第3次)研发助理" style="rounded=1;whiteSpace=wrap;html=1;" parent="WIyWlLk6GJQsqaUBKTNV-1" vertex="1">
          <mxGeometry x="950" y="1640" width="120" height="60" as="geometry" />
        </mxCell>
        <mxCell id="7YlRBh8pq4Ufe2D6Z4gR-192" style="edgeStyle=orthogonalEdgeStyle;rounded=0;orthogonalLoop=1;jettySize=auto;html=1;" parent="WIyWlLk6GJQsqaUBKTNV-1" source="7YlRBh8pq4Ufe2D6Z4gR-102" target="7YlRBh8pq4Ufe2D6Z4gR-191" edge="1">
          <mxGeometry relative="1" as="geometry" />
        </mxCell>
        <mxCell id="7YlRBh8pq4Ufe2D6Z4gR-102" value="聚合节点" style="rhombus;whiteSpace=wrap;html=1;" parent="WIyWlLk6GJQsqaUBKTNV-1" vertex="1">
          <mxGeometry x="600" y="3220" width="80" height="80" as="geometry" />
        </mxCell>
        <mxCell id="7YlRBh8pq4Ufe2D6Z4gR-191" value="结束" style="ellipse;whiteSpace=wrap;html=1;" parent="WIyWlLk6GJQsqaUBKTNV-1" vertex="1">
          <mxGeometry x="580" y="3370" width="120" height="80" as="geometry" />
        </mxCell>
        <mxCell id="7YlRBh8pq4Ufe2D6Z4gR-199" value="" style="endArrow=none;html=1;rounded=0;" parent="WIyWlLk6GJQsqaUBKTNV-1" edge="1">
          <mxGeometry width="50" height="50" relative="1" as="geometry">
            <mxPoint x="80" y="3400" as="sourcePoint" />
            <mxPoint x="80" y="1240" as="targetPoint" />
          </mxGeometry>
        </mxCell>
        <mxCell id="7YlRBh8pq4Ufe2D6Z4gR-200" value="" style="endArrow=none;html=1;rounded=0;entryX=0;entryY=0.375;entryDx=0;entryDy=0;entryPerimeter=0;" parent="WIyWlLk6GJQsqaUBKTNV-1" target="7YlRBh8pq4Ufe2D6Z4gR-191" edge="1">
          <mxGeometry width="50" height="50" relative="1" as="geometry">
            <mxPoint x="80" y="3400" as="sourcePoint" />
            <mxPoint x="290" y="3290" as="targetPoint" />
            <Array as="points">
              <mxPoint x="550" y="3400" />
            </Array>
          </mxGeometry>
        </mxCell>
      </root>
    </mxGraphModel>
  </diagram>
</mxfile>
